<svg xmlns="http://www.w3.org/2000/svg" width="101" height="100" fill="none" viewBox="0 0 101 100"><g clip-path="url(#a)"><path fill="#cdd6ff" d="M85.02 30.4c-3.08-10.01-9.1-19.67-17.29-26.33-.28-.27-.77-.27-1.12-.13L53.38 9.89c-11.84-2.17-23.6-2.66-35 1.54a1 1 0 0 0-.7.9c-.15 3.23-.84 16.67-.84 16.67C8.99 37.33 2.83 47.77 1.28 59.1a1 1 0 0 0 .43.99l14.28 9.93c3.08 10.02 9.1 19.68 17.29 26.33.27.28.77.28 1.12.14l13.23-5.95c11.84 2.17 23.6 2.65 35-1.54.43-.14.7-.49.7-.91l.84-16.67c7.84-8.32 14-18.76 15.55-30.1a1 1 0 0 0-.43-.98z"/><path fill="#000" stroke="#000" stroke-linecap="round" stroke-linejoin="round" stroke-miterlimit="10" d="m97.36 66.5.1-.28 1.99-5.4-3.84-1-19.7-31.87a7.4 7.4 0 0 0-8.01-3.3L12.29 38.06l-3.64-.95-1.7 4.97q-.1.24-.17.49a6 6 0 0 0 .44 4.57l18.87 36.18a10.1 10.1 0 0 0 12.17 4.9L94.32 69.4a5 5 0 0 0 3.04-2.9"/><path fill="#fff" stroke="#000" stroke-linecap="round" stroke-linejoin="round" stroke-miterlimit="10" d="M96.15 64.54 40.1 82.92a10.1 10.1 0 0 1-12.17-4.9L9.05 41.83a6.15 6.15 0 0 1 4.01-8.82l56.68-13.68a7.4 7.4 0 0 1 8.03 3.3L98.8 57.17a5 5 0 0 1-2.66 7.37"/><path fill="#cdd6ff" stroke="#000" stroke-linecap="round" stroke-linejoin="round" stroke-miterlimit="10" d="m80.2 26.65-2.43-4a7.4 7.4 0 0 0-8.03-3.3L13.06 33a6.15 6.15 0 0 0-4.01 8.83l1.9 3.64z"/><path fill="#000" stroke="#000" stroke-linecap="round" stroke-linejoin="round" stroke-miterlimit="10" d="M18.53 40.45c.98-.55 1.12-2.17.31-3.63-.8-1.45-2.26-2.2-3.24-1.65s-1.12 2.17-.31 3.63c.8 1.46 2.26 2.2 3.24 1.65M27.56 38.21c.98-.54 1.12-2.17.3-3.62-.8-1.46-2.25-2.2-3.23-1.66-.99.55-1.13 2.17-.32 3.63s2.27 2.2 3.25 1.65"/><path fill="#cdd6ff" d="m87.44 51.81-1.58-2.55a.9.9 0 0 0-1.04-.4l-53.74 15.8a.9.9 0 0 0-.56 1.31l1.45 2.77c.2.39.65.58 1.08.46l53.87-16.03a.92.92 0 0 0 .52-1.36M79.06 59.28 35.42 73.03a.92.92 0 0 0-.54 1.31l1.41 2.67c.21.38.67.57 1.09.44l43.9-13.84a.92.92 0 0 0 .5-1.38l-1.67-2.57a.9.9 0 0 0-1.05-.38"/><path fill="#000" stroke="#000" stroke-linecap="round" stroke-linejoin="round" stroke-miterlimit="10" d="M61.4 31.55c5.37 9.67 3.91 20.74-3.28 24.74S40.77 55.67 35.4 46c-4.24-7.61-4.23-16.1-.53-21.31q1.5-2.14 3.8-3.43c7.18-4 17.36.61 22.73 10.28"/><path stroke="#000" stroke-linecap="round" stroke-linejoin="round" stroke-miterlimit="10" d="M35.8 25.16s4.77-7.03 9.28-6.53c4.5.51 1.62 34.24 1.62 34.24S34.2 27.84 35.8 25.16"/><path fill="#cdd6ff" stroke="#000" stroke-linecap="round" stroke-linejoin="round" stroke-miterlimit="10" d="M71.24 77.96a4.3 4.3 0 0 1-5.82-1.66L51.6 51.44a4.29 4.29 0 0 1 7.48-4.15L72.9 72.16a4.3 4.3 0 0 1-1.65 5.8"/><path fill="#000" stroke="#000" stroke-linecap="round" stroke-linejoin="round" stroke-miterlimit="10" d="M59.08 47.29a4.29 4.29 0 0 0-7.48 4.15l6.16 11.08s.85-10.05 6.24-6.39z"/><path fill="#cdd6ff" d="M60.84 53.57c7.18-4 8.65-15.07 3.28-24.74S48.57 14.56 41.38 18.55s-8.65 15.07-3.27 24.74c5.37 9.67 15.55 14.27 22.73 10.28"/><path fill="#fff" d="M40.54 43.28c-5.38-9.67-3.91-20.74 3.27-24.73q2.08-1.13 4.42-1.37c-2.41-.21-4.76.2-6.85 1.37-7.17 4-8.65 15.06-3.27 24.73 4.34 7.82 11.81 12.32 18.32 11.65-5.86-.5-12.08-4.8-15.9-11.65"/><path stroke="#000" stroke-linecap="round" stroke-linejoin="round" stroke-miterlimit="10" d="M60.84 53.57c7.18-4 8.65-15.07 3.28-24.74S48.57 14.56 41.38 18.55s-8.65 15.07-3.27 24.74c5.37 9.67 15.55 14.27 22.73 10.28"/><path stroke="#000" stroke-linecap="round" stroke-linejoin="round" stroke-miterlimit="10" d="M62.25 46.97q-1.03 1.5-2.6 2.39c-5.19 2.88-12.83-.96-17.06-8.57-4.23-7.6-3.46-16.12 1.73-19 5.2-2.88 12.82.96 17.05 8.57a21 21 0 0 1 2.72 9.12"/><path fill="#fff" d="M47.23 22.97a7.9 7.9 0 0 1 8.61 3.5c2.23 3.55.71 3.95-1.11 2.33s-5.47-2.57-7.5-.83-3.65-1.2-2.84-2.71a4.4 4.4 0 0 1 2.84-2.3M57.67 31.74s.05-1.4.93-.9c.89.5 1.9 1.82.99 2.42-.91.61-1.93-1.52-1.93-1.52"/></g><defs><clipPath id="a"><path fill="#fff" d="M.5 0h100v100H.5z"/></clipPath></defs></svg>
