<svg width="15" height="9" viewBox="0 0 15 9" fill="none" xmlns="http://www.w3.org/2000/svg">
<path d="M7.85319 0.276518L14.1032 6.52652C14.2793 6.70264 14.3783 6.94151 14.3783 7.19058C14.3783 7.43965 14.2793 7.67852 14.1032 7.85464C13.9271 8.03076 13.6882 8.12971 13.4391 8.12971C13.1901 8.12971 12.9512 8.03076 12.7751 7.85464L7.18991 2.26792L1.60319 7.85308C1.51598 7.94029 1.41245 8.00946 1.29851 8.05666C1.18457 8.10385 1.06245 8.12815 0.939126 8.12815C0.815799 8.12815 0.693678 8.10385 0.579738 8.05666C0.465798 8.00946 0.36227 7.94029 0.275064 7.85308C0.187858 7.76588 0.118682 7.66235 0.0714868 7.54841C0.0242913 7.43447 -9.18863e-10 7.31235 0 7.18902C9.18864e-10 7.06569 0.0242913 6.94357 0.0714868 6.82963C0.118682 6.71569 0.187858 6.61216 0.275064 6.52496L6.52506 0.274957C6.61226 0.187659 6.71584 0.118433 6.82985 0.071249C6.94386 0.024066 7.06606 -0.000146866 7.18945 -1.90735e-06C7.31284 0.000143051 7.43498 0.0246439 7.54888 0.0720959C7.66278 0.119548 7.76619 0.189016 7.85319 0.276518Z" fill="#9B9B9B"/>
</svg>
