<svg width="20" height="20" viewBox="0 0 20 20" fill="none" xmlns="http://www.w3.org/2000/svg">
<path d="M18.7883 8.0875L12.5383 1.8375C12.4072 1.70629 12.2402 1.6169 12.0583 1.58064C11.8764 1.54438 11.6879 1.56288 11.5165 1.6338C11.3451 1.70472 11.1987 1.82488 11.0956 1.97906C10.9925 2.13325 10.9375 2.31454 10.9375 2.5V5.37031C8.92501 5.61406 6.74532 6.61172 4.94141 8.14141C2.66329 10.0742 1.24454 12.5703 0.9461 15.1727C0.915867 15.4338 0.968737 15.6978 1.09719 15.9272C1.22565 16.1566 1.42315 16.3396 1.66161 16.4503C1.90007 16.5609 2.16736 16.5936 2.42545 16.5436C2.68354 16.4936 2.91931 16.3636 3.09923 16.1719C3.91641 15.3016 6.7711 12.5984 10.9375 12.2328V15C10.9377 15.1853 10.9927 15.3664 11.0958 15.5204C11.1988 15.6744 11.3451 15.7945 11.5164 15.8654C11.6876 15.9363 11.8759 15.9548 12.0577 15.9187C12.2394 15.8826 12.4064 15.7934 12.5375 15.6625L18.7875 9.4125C18.9632 9.23682 19.0619 8.9986 19.0621 8.75016C19.0622 8.50173 18.9637 8.26339 18.7883 8.0875ZM12.8125 12.7344V11.25C12.8125 11.0014 12.7137 10.7629 12.5379 10.5871C12.3621 10.4113 12.1236 10.3125 11.875 10.3125C8.04688 10.3125 5.11173 11.9969 3.29766 13.4461C3.85469 12.0273 4.83126 10.6945 6.15469 9.57188C7.91407 8.07891 10.0524 7.1875 11.875 7.1875C12.1236 7.1875 12.3621 7.08873 12.5379 6.91292C12.7137 6.7371 12.8125 6.49864 12.8125 6.25V4.76563L16.7969 8.75L12.8125 12.7344Z" fill="#898989"/>
</svg>
